<?xml version="1.0" encoding="utf-8" ?>
<svg xmlns="http://www.w3.org/2000/svg" xmlns:xlink="http://www.w3.org/1999/xlink" width="1024" height="1024">
	<path transform="scale(2 2)" d="M281.591 111.537C298.309 101.976 302.3 96.9149 324.197 93.2201C327.041 92.7403 329.989 92.9353 332.807 92.3026C344.89 89.5901 343.696 88.1287 357.245 88.1136L374.651 88.1091C385.442 88.1013 390.838 84.7544 396.048 94.1642L409.646 94.1642C411.607 86.4368 419.168 87.6993 425.305 89.6414C448.129 96.8647 454.387 115.707 454.337 136.946L454.312 173.879C454.316 177.572 454.478 181.354 454.205 185.036C452.372 209.748 431.601 224.261 407.984 223.011C404.81 237.767 397.748 243.923 384.234 248.481C374.519 266.35 368.553 269.739 349.35 277.947C344.139 280.174 338.904 282.774 333.47 284.37C323.027 287.438 306.897 284.03 302.919 272.437C300.793 273.481 299.117 274.546 297.373 276.161C303.644 284.169 310.368 291.651 317.986 298.412C322.155 302.113 328.313 305.334 331.56 309.798C341.846 323.938 324.552 343.673 307.821 335.712C299.551 331.778 283.086 318.146 277.029 311.068C275.623 317.244 275.708 323.892 275.29 330.2L273.534 353.211C273.029 359.584 272.73 365.999 271.336 372.256C265.156 399.981 241.93 420.357 213.634 422.594C207.563 423.075 185.787 423.442 180.379 422.221C158.869 417.367 160.967 386.212 182.664 383.816C188.566 383.165 203.05 387.014 205.089 378.785C206.642 372.519 201.504 358.183 212.269 358.568C212.251 353.188 211.42 347.873 211.506 342.445C203.504 342.882 204.332 334.638 203.873 329.082L202.574 312.876C192.672 318.693 183.137 330.362 172.032 335.645C154.538 343.969 137.678 323.092 148.937 308.956C152.261 304.783 157.033 303.438 160.906 300.068C168.876 293.132 176.244 285.194 183.695 277.695C181.503 276.162 179.615 274.297 177.707 272.437C174.086 277.891 167.201 284.022 160.67 285.545C140.279 290.299 98.8286 263.305 92.0414 244.068C90.6814 240.214 90.7806 236.338 89.7901 232.476C87.3063 222.792 78.2858 222.624 71.0894 218.366C49.6025 205.651 56.6675 157.19 65.897 155.509C76.4127 153.595 71.4283 167.107 70.6052 171.014C69.0394 178.446 68.6002 186.855 69.6528 194.406C73.1443 219.452 97.7702 201.691 102.83 237.391C104.115 246.454 114.794 254.269 121.708 259.434L121.925 258.88C120.956 255.705 117.216 251.07 115.714 246.781C111.453 234.611 114.696 223.149 100.217 216.583C84.9281 209.65 83.4195 214.446 82.7021 193.134C81.7568 165.052 95.5148 129.938 119.403 113.864C123.089 111.385 136.601 106.245 138.286 104.019C118.035 106.33 100.818 115.451 88.2872 131.852C85.5386 135.45 84.271 141.246 79.1703 142.046C75.804 142.573 72.9078 140.357 72.6664 136.892C72.358 132.463 78.7768 124.231 81.5514 120.899C111.08 85.4359 163.113 82.3705 198.11 111.537C225.607 95.6047 254.289 98.4037 281.591 111.537ZM194.63 270.531C194.837 268.777 195.269 267.276 196.098 265.713C196.295 264.62 197.09 263.308 197.57 262.286C202.783 251.195 201.76 243.666 195.996 232.755C192.273 225.709 188.279 224.075 185.154 218.944C169.386 193.061 179.746 154.982 198.91 133.704C203.353 128.772 208.936 124.962 213.206 119.877C200.533 124.172 193.453 134.195 183.37 139.607L183.202 139.437L183.826 138.678L183.695 138.238C162.688 156.924 159.177 193.581 171.739 218.002C179.3 232.699 192.787 242.184 185.032 261.159C187.795 264.934 190.8 267.848 194.63 270.531Z"/>
	<path fill="#427272" transform="scale(2 2)" d="M183.695 138.238C184.558 136.581 186.268 134.989 187.619 133.731C202.301 120.067 220.499 112.365 240.713 113.049C261.797 118.622 278.931 128.205 290.247 147.596C303.243 169.865 305.213 199.926 292.464 222.834C277.586 249.567 280.554 241.941 282.713 272.437C281.574 273.302 280.398 274.032 279.172 274.763C279.206 271.828 280.138 267.575 278.423 265.011C273.397 257.498 267.646 264.777 266.938 272.437C267.368 278.298 266.453 284.527 266.037 290.393L261.375 352.022C260.889 358.431 260.781 365.236 259.158 371.468C253.674 392.528 235.944 408.08 214.099 410.205C210.252 411.132 187.745 411.697 182.891 410.732C177.282 409.617 175.299 401.879 179.322 397.91C187.76 389.585 217.193 407.796 217.337 372.264L217.321 362.597C215.981 360.449 214.613 359.428 212.269 358.568C212.251 353.188 211.42 347.873 211.506 342.445C218.685 340.143 215.897 332.2 215.408 326.509L213.514 304.936C212.949 298.609 211.312 267.267 208.541 264.541C204.611 260.673 198.715 263.996 199.136 269.312C199.123 270.662 199.065 272.029 199.136 273.376C197.585 272.558 195.976 271.664 194.63 270.531C194.837 268.777 195.269 267.276 196.098 265.713C196.295 264.62 197.09 263.308 197.57 262.286C202.783 251.195 201.76 243.666 195.996 232.755C192.273 225.709 188.279 224.075 185.154 218.944C169.386 193.061 179.746 154.982 198.91 133.704C203.353 128.772 208.936 124.962 213.206 119.877C200.533 124.172 193.453 134.195 183.37 139.607L183.202 139.437L183.826 138.678L183.695 138.238Z"/>
	<path fill="#2F4F4F" transform="scale(2 2)" d="M251.24 272.437C252.966 271.622 254.23 270.626 255.587 269.312C258.874 270.828 263.371 271.801 266.938 272.437C267.368 278.298 266.453 284.527 266.037 290.393L261.375 352.022C260.889 358.431 260.781 365.236 259.158 371.468C253.674 392.528 235.944 408.08 214.099 410.205C215.472 407.969 219.749 405.445 221.843 403.598C234.626 392.321 240.711 377.277 241.858 360.483C239.384 360.461 236.882 360.692 234.416 360.483C230.123 359.526 226.424 354.755 230.037 350.762C233.079 347.401 239.988 348.663 244.199 348.579C244.944 342.584 245.505 336.555 245.767 330.519C253.851 330.577 255.483 321.253 247.712 318.766C248.024 313.223 248.995 307.73 249.309 302.188C257.19 301.463 258.185 291.049 250.275 290.107C249.987 284.197 251.662 278.304 251.24 272.437Z"/>
	<path transform="scale(2 2)" d="M244.199 348.579C249.924 348.64 253.287 354.734 249.514 358.498C246.313 361.691 238.653 359.986 234.416 360.483C230.123 359.526 226.424 354.755 230.037 350.762C233.079 347.401 239.988 348.663 244.199 348.579Z"/>
	<path transform="scale(2 2)" d="M251.24 272.437C239.184 278.356 218.719 272.053 225.565 261.746C229.389 255.991 236.147 262.662 241.172 262.362C244.59 262.158 247.312 259.968 250.558 259.359C256.55 258.235 258.864 265.208 255.587 269.312C254.23 270.626 252.966 271.622 251.24 272.437Z"/>
	<path transform="scale(2 2)" d="M249.309 302.188C244.107 301.686 231.738 303.72 227.854 300.524C225.444 298.541 225.398 294.244 227.566 292.068C231.281 288.337 245.281 290.095 250.275 290.107C258.185 291.049 257.19 301.463 249.309 302.188Z"/>
	<path transform="scale(2 2)" d="M247.712 318.766C255.483 321.253 253.851 330.577 245.767 330.519C241.574 330.501 231.38 331.645 228.361 328.894C226.125 326.857 226.099 322.733 228.293 320.657C231.468 317.652 243.289 318.742 247.712 318.766Z"/>
	<path transform="scale(2 2)" d="M276.848 182.308Q277.075 182.279 277.304 182.261Q277.532 182.242 277.762 182.235Q277.991 182.228 278.22 182.233Q278.449 182.237 278.678 182.252Q278.907 182.268 279.134 182.294Q279.362 182.321 279.588 182.358Q279.815 182.396 280.039 182.445Q280.263 182.493 280.484 182.553Q280.706 182.612 280.924 182.683Q281.142 182.753 281.357 182.834Q281.571 182.914 281.781 183.006Q281.992 183.097 282.197 183.198Q282.403 183.3 282.603 183.411Q282.804 183.522 282.999 183.643Q283.194 183.764 283.382 183.894Q283.571 184.025 283.753 184.164Q283.935 184.303 284.11 184.451Q284.285 184.6 284.453 184.756Q284.62 184.912 284.78 185.077Q284.94 185.241 285.091 185.413Q285.243 185.585 285.386 185.765Q285.529 185.944 285.663 186.13Q285.797 186.316 285.922 186.508Q286.046 186.701 286.162 186.899Q286.277 187.097 286.382 187.301Q286.488 187.504 286.583 187.713Q286.678 187.921 286.763 188.134Q286.849 188.347 286.923 188.564Q286.998 188.781 287.062 189.001Q287.125 189.221 287.179 189.444Q287.232 189.667 287.274 189.892Q287.316 190.118 287.347 190.345Q287.378 190.572 287.398 190.801Q287.418 191.029 287.427 191.258Q287.435 191.487 287.433 191.716Q287.431 191.946 287.417 192.174Q287.403 192.403 287.379 192.631Q287.354 192.859 287.318 193.086Q287.282 193.312 287.235 193.536Q287.188 193.761 287.131 193.983Q287.073 194.204 287.004 194.423Q286.936 194.642 286.857 194.857Q286.777 195.072 286.688 195.283Q286.598 195.494 286.499 195.701Q286.399 195.907 286.289 196.109Q286.179 196.31 286.06 196.506Q285.941 196.701 285.812 196.891Q285.683 197.081 285.545 197.264Q285.407 197.447 285.26 197.623Q285.114 197.799 284.959 197.968Q284.803 198.137 284.64 198.298Q284.477 198.459 284.306 198.612Q284.135 198.765 283.957 198.909Q283.779 199.053 283.594 199.189Q283.409 199.324 283.218 199.45Q283.027 199.577 282.829 199.693Q282.632 199.81 282.429 199.917Q282.227 200.024 282.019 200.121Q281.811 200.218 281.599 200.305Q281.387 200.392 281.171 200.468Q280.954 200.544 280.735 200.61Q280.515 200.676 280.293 200.731Q280.07 200.785 279.845 200.829Q279.62 200.873 279.393 200.906Q279.164 200.939 278.933 200.961Q278.703 200.983 278.471 200.993Q278.24 201.004 278.009 201.003Q277.777 201.002 277.546 200.99Q277.315 200.977 277.084 200.953Q276.854 200.93 276.625 200.895Q276.396 200.86 276.169 200.813Q275.942 200.767 275.718 200.709Q275.494 200.652 275.272 200.583Q275.051 200.515 274.834 200.436Q274.616 200.357 274.403 200.267Q274.189 200.177 273.981 200.076Q273.772 199.976 273.568 199.866Q273.365 199.755 273.167 199.635Q272.969 199.514 272.778 199.384Q272.586 199.254 272.401 199.115Q272.216 198.976 272.038 198.827Q271.86 198.679 271.69 198.522Q271.52 198.365 271.357 198.2Q271.195 198.035 271.041 197.862Q270.887 197.69 270.741 197.509Q270.596 197.329 270.46 197.142Q270.323 196.955 270.196 196.761Q270.069 196.567 269.952 196.368Q269.835 196.168 269.728 195.963Q269.621 195.757 269.524 195.547Q269.427 195.337 269.34 195.122Q269.254 194.907 269.178 194.688Q269.102 194.47 269.037 194.247Q268.973 194.025 268.919 193.8Q268.865 193.575 268.822 193.347Q268.779 193.119 268.748 192.89Q268.717 192.661 268.697 192.43Q268.676 192.199 268.668 191.968Q268.659 191.736 268.662 191.505Q268.665 191.273 268.679 191.042Q268.693 190.811 268.719 190.581Q268.744 190.351 268.781 190.122Q268.818 189.893 268.866 189.667Q268.914 189.44 268.973 189.216Q269.033 188.993 269.103 188.772Q269.173 188.551 269.254 188.334Q269.335 188.117 269.427 187.905Q269.518 187.692 269.62 187.484Q269.722 187.276 269.834 187.073Q269.946 186.871 270.068 186.674Q270.19 186.477 270.322 186.286Q270.453 186.096 270.594 185.912Q270.735 185.728 270.884 185.551Q271.034 185.375 271.192 185.206Q271.351 185.036 271.517 184.875Q271.683 184.714 271.857 184.561Q272.031 184.409 272.213 184.265Q272.394 184.121 272.582 183.986Q272.771 183.851 272.965 183.726Q273.16 183.6 273.361 183.485Q273.561 183.369 273.767 183.264Q273.974 183.158 274.185 183.063Q274.396 182.967 274.611 182.883Q274.827 182.798 275.046 182.724Q275.266 182.65 275.488 182.587Q275.711 182.523 275.937 182.471Q276.162 182.419 276.39 182.378Q276.618 182.338 276.848 182.308Z"/>
	<path transform="scale(2 2)" d="M201.379 182.364Q201.606 182.326 201.834 182.299Q202.062 182.272 202.292 182.257Q202.521 182.241 202.751 182.237Q202.981 182.232 203.211 182.239Q203.44 182.246 203.67 182.265Q203.899 182.283 204.127 182.313Q204.355 182.342 204.581 182.383Q204.807 182.424 205.031 182.476Q205.255 182.527 205.476 182.59Q205.698 182.653 205.915 182.727Q206.133 182.8 206.347 182.885Q206.561 182.969 206.771 183.064Q206.98 183.158 207.185 183.263Q207.389 183.368 207.588 183.483Q207.788 183.598 207.981 183.722Q208.174 183.847 208.361 183.98Q208.548 184.114 208.728 184.257Q208.908 184.4 209.081 184.552Q209.254 184.703 209.419 184.863Q209.584 185.023 209.741 185.191Q209.899 185.359 210.047 185.534Q210.196 185.71 210.336 185.892Q210.476 186.075 210.606 186.264Q210.737 186.453 210.858 186.648Q210.979 186.844 211.091 187.045Q211.202 187.246 211.304 187.452Q211.405 187.658 211.496 187.869Q211.587 188.08 211.668 188.296Q211.749 188.511 211.819 188.73Q211.889 188.949 211.948 189.171Q212.007 189.393 212.055 189.618Q212.103 189.843 212.14 190.07Q212.177 190.297 212.203 190.525Q212.229 190.754 212.243 190.983Q212.257 191.213 212.261 191.443Q212.264 191.672 212.256 191.902Q212.248 192.132 212.228 192.361Q212.209 192.59 212.178 192.818Q212.147 193.046 212.105 193.272Q212.064 193.498 212.011 193.722Q211.958 193.945 211.894 194.166Q211.83 194.387 211.755 194.604Q211.68 194.822 211.595 195.035Q211.51 195.249 211.414 195.458Q211.318 195.667 211.213 195.871Q211.107 196.075 210.991 196.274Q210.875 196.472 210.75 196.665Q210.624 196.858 210.49 197.044Q210.355 197.23 210.211 197.409Q210.067 197.589 209.915 197.761Q209.762 197.933 209.602 198.098Q209.441 198.262 209.272 198.418Q209.104 198.574 208.928 198.722Q208.752 198.87 208.568 199.009Q208.385 199.148 208.196 199.278Q208.006 199.408 207.81 199.528Q207.614 199.648 207.412 199.759Q207.211 199.869 207.004 199.969Q206.797 200.07 206.586 200.16Q206.374 200.25 206.158 200.33Q205.943 200.409 205.723 200.478Q205.504 200.547 205.282 200.605Q205.059 200.663 204.834 200.71Q204.609 200.757 204.382 200.793Q204.156 200.829 203.929 200.853Q203.702 200.878 203.474 200.891Q203.246 200.904 203.017 200.907Q202.789 200.909 202.561 200.9Q202.332 200.891 202.105 200.871Q201.877 200.851 201.651 200.82Q201.425 200.788 201.2 200.746Q200.976 200.704 200.754 200.651Q200.531 200.598 200.312 200.534Q200.093 200.47 199.877 200.395Q199.661 200.32 199.449 200.235Q199.237 200.15 199.029 200.055Q198.822 199.96 198.619 199.854Q198.416 199.749 198.219 199.634Q198.022 199.518 197.83 199.394Q197.639 199.269 197.454 199.135Q197.269 199.001 197.09 198.858Q196.912 198.716 196.741 198.564Q196.57 198.413 196.406 198.253Q196.243 198.094 196.087 197.926Q195.932 197.759 195.785 197.584Q195.637 197.409 195.499 197.228Q195.361 197.046 195.231 196.858Q195.102 196.669 194.982 196.475Q194.862 196.281 194.752 196.08Q194.641 195.88 194.541 195.675Q194.44 195.47 194.35 195.26Q194.26 195.05 194.18 194.836Q194.1 194.622 194.031 194.405Q193.961 194.187 193.903 193.966Q193.844 193.745 193.796 193.522Q193.749 193.298 193.712 193.073Q193.675 192.848 193.65 192.62Q193.624 192.393 193.609 192.165Q193.595 191.937 193.591 191.709Q193.588 191.481 193.596 191.252Q193.604 191.024 193.622 190.796Q193.641 190.569 193.672 190.342Q193.702 190.116 193.743 189.891Q193.784 189.666 193.836 189.444Q193.888 189.221 193.951 189.002Q194.014 188.782 194.087 188.566Q194.161 188.349 194.245 188.137Q194.329 187.924 194.423 187.716Q194.517 187.508 194.622 187.305Q194.726 187.102 194.84 186.904Q194.955 186.706 195.078 186.514Q195.202 186.322 195.335 186.136Q195.468 185.95 195.61 185.771Q195.752 185.592 195.903 185.42Q196.053 185.248 196.212 185.084Q196.371 184.92 196.537 184.763Q196.704 184.607 196.878 184.459Q197.052 184.311 197.233 184.172Q197.414 184.032 197.602 183.902Q197.789 183.772 197.983 183.651Q198.177 183.53 198.376 183.419Q198.576 183.307 198.781 183.206Q198.985 183.104 199.195 183.013Q199.404 182.922 199.618 182.841Q199.832 182.76 200.049 182.689Q200.266 182.619 200.487 182.559Q200.707 182.5 200.93 182.451Q201.154 182.402 201.379 182.364Z"/>
	<path fill="#FFC125" transform="scale(2 2)" d="M409.646 94.1642L409.646 95.1527C411.401 100.783 415.851 99.5905 420.453 100.791C439.89 105.863 442.271 121.856 442.251 138.347L442.24 173.331C442.244 177.191 442.385 181.104 441.939 184.943C440.154 200.323 425.386 213.422 409.646 211.134C401.313 211.329 396.95 209.881 396.048 219.498C395.181 226.103 393.163 229.691 387.873 233.766C387.726 229.025 387.877 224.245 387.873 219.498C386.902 210.343 382.439 211.054 374.28 211.097C343.506 211.256 323.14 213.518 323.224 174.031L323.219 137.342C323.2 108.938 330.974 100.145 361.303 100.157L380.815 100.193C387.254 100.204 393.429 101.396 396.048 94.1642L409.646 94.1642Z"/>
	<path fill="#427272" transform="scale(2 2)" d="M138.286 104.019C157.275 103.793 171.559 106.351 187.246 117.976C183.077 121.758 178.674 125.344 174.84 129.473C148.556 157.777 144.133 200.85 166.681 232.757C172.31 240.722 177.715 247.38 173.471 257.483C170.618 264.272 162.649 274.479 154.372 274.041C147.655 273.685 125.649 264.62 121.708 259.434L121.925 258.88C120.956 255.705 117.216 251.07 115.714 246.781C111.453 234.611 114.696 223.149 100.217 216.583C84.9281 209.65 83.4195 214.446 82.7021 193.134C81.7568 165.052 95.5148 129.938 119.403 113.864C123.089 111.385 136.601 106.245 138.286 104.019Z"/>
	<path fill="#2F4F4F" transform="scale(2 2)" d="M240.713 113.049C259.661 112.635 278.625 121.339 292.208 134.363C323.372 164.246 303.261 173.002 314.889 200.814C309.894 218.818 311.853 220.138 299.331 232.953C291.34 241.131 292.631 251.583 296.495 261.159C291.758 264.721 287.456 268.854 282.713 272.437C280.554 241.941 277.586 249.567 292.464 222.834C305.213 199.926 303.243 169.865 290.247 147.596C278.931 128.205 261.797 118.622 240.713 113.049Z"/>
	<path fill="#427272" transform="scale(2 2)" d="M324.417 212.378C335.508 222.14 344.574 223.015 358.602 223.023L375.36 223.011C375.39 239.461 374.233 252.47 357.619 261.391C354.754 262.93 351.628 263.906 348.79 265.511L348.438 265.713C327.668 272.137 321.976 284.064 309.541 259.748C300.071 241.231 308.613 243.907 316.332 232.746C320.351 226.935 322.362 219.076 324.417 212.378Z"/>
	<path fill="#2F4F4F" transform="scale(2 2)" d="M287.108 282.972C288.496 283.659 290.19 286.671 291.224 287.965C297.507 295.826 304.817 303.115 312.593 309.477C316.545 312.711 328.135 318.694 319.819 324.472C317.898 325.806 316.18 325.935 313.927 325.581C303.307 320.356 284.631 303.564 278.045 294.556C277.974 292.667 277.896 290.805 278.045 288.918C281.188 287.116 284.131 285.03 287.108 282.972Z"/>
	<path fill="#2F4F4F" transform="scale(2 2)" d="M194.63 284.148C196.404 285.101 198.198 285.972 200.025 286.816C199.959 290.89 200.157 295.135 200.852 299.153C193.508 303.426 169.651 324.862 164.241 325.581C161.032 325.212 157.114 322.844 157.305 319.165C157.509 315.237 163.48 313.51 166.274 311.414C175.313 304.636 185.743 292.151 194.63 284.148Z"/>
	<path fill="#427272" transform="scale(2 2)" d="M316.917 107.016L317.288 107.067C317.326 107.995 313.259 115.112 312.642 117.344C310.731 124.248 311.451 131.218 311.018 138.238C308.714 134.645 305.842 131.617 302.919 128.534C299.571 125.148 296.012 122.026 292.462 118.857C299.714 113.537 308.251 109.446 316.917 107.016Z"/>
</svg>
